<svg width="204" height="59" viewBox="0 0 204 59" fill="none" xmlns="http://www.w3.org/2000/svg">
<path d="M26.64 29.672C28.848 30.152 30.544 31.112 31.728 32.552C32.944 33.96 33.552 35.784 33.552 38.024C33.552 40.904 32.48 43.128 30.336 44.696C28.224 46.232 25.088 47 20.928 47H5.472V13.4H19.968C23.712 13.4 26.608 14.152 28.656 15.656C30.736 17.16 31.776 19.288 31.776 22.04C31.776 23.896 31.312 25.48 30.384 26.792C29.488 28.072 28.24 29.032 26.64 29.672ZM9.024 16.328V28.52H19.728C22.448 28.52 24.544 28.008 26.016 26.984C27.488 25.928 28.224 24.408 28.224 22.424C28.224 20.44 27.488 18.936 26.016 17.912C24.544 16.856 22.448 16.328 19.728 16.328H9.024ZM20.88 44.072C23.888 44.072 26.16 43.56 27.696 42.536C29.232 41.512 30 39.912 30 37.736C30 33.544 26.96 31.448 20.88 31.448H9.024V44.072H20.88ZM63.9795 21.752V47H60.7155V42.008C59.6915 43.704 58.3315 45 56.6355 45.896C54.9715 46.792 53.0835 47.24 50.9715 47.24C48.6035 47.24 46.4595 46.696 44.5395 45.608C42.6195 44.52 41.1155 43 40.0275 41.048C38.9395 39.096 38.3955 36.872 38.3955 34.376C38.3955 31.88 38.9395 29.656 40.0275 27.704C41.1155 25.752 42.6195 24.248 44.5395 23.192C46.4595 22.104 48.6035 21.56 50.9715 21.56C53.0195 21.56 54.8595 21.992 56.4915 22.856C58.1555 23.688 59.5155 24.92 60.5715 26.552V21.752H63.9795ZM51.2595 44.216C53.0195 44.216 54.6035 43.816 56.0115 43.016C57.4515 42.184 58.5715 41.016 59.3715 39.512C60.2035 38.008 60.6195 36.296 60.6195 34.376C60.6195 32.456 60.2035 30.744 59.3715 29.24C58.5715 27.736 57.4515 26.584 56.0115 25.784C54.6035 24.952 53.0195 24.536 51.2595 24.536C49.4675 24.536 47.8515 24.952 46.4115 25.784C45.0035 26.584 43.8835 27.736 43.0515 29.24C42.2515 30.744 41.8515 32.456 41.8515 34.376C41.8515 36.296 42.2515 38.008 43.0515 39.512C43.8835 41.016 45.0035 42.184 46.4115 43.016C47.8515 43.816 49.4675 44.216 51.2595 44.216ZM80.5748 47.24C78.3028 47.24 76.5428 46.6 75.2948 45.32C74.0788 44.04 73.4708 42.264 73.4708 39.992V11.384H76.8788V39.704C76.8788 41.208 77.2308 42.36 77.9348 43.16C78.6388 43.928 79.6948 44.312 81.1028 44.312C81.9988 44.312 82.7668 44.168 83.4068 43.88L83.6468 46.712C82.6548 47.064 81.6308 47.24 80.5748 47.24ZM110.855 21.752V47H107.591V42.008C106.567 43.704 105.207 45 103.511 45.896C101.847 46.792 99.9585 47.24 97.8465 47.24C95.4785 47.24 93.3345 46.696 91.4145 45.608C89.4945 44.52 87.9905 43 86.9025 41.048C85.8145 39.096 85.2705 36.872 85.2705 34.376C85.2705 31.88 85.8145 29.656 86.9025 27.704C87.9905 25.752 89.4945 24.248 91.4145 23.192C93.3345 22.104 95.4785 21.56 97.8465 21.56C99.8945 21.56 101.735 21.992 103.367 22.856C105.031 23.688 106.391 24.92 107.447 26.552V21.752H110.855ZM98.1345 44.216C99.8945 44.216 101.479 43.816 102.887 43.016C104.327 42.184 105.447 41.016 106.247 39.512C107.079 38.008 107.495 36.296 107.495 34.376C107.495 32.456 107.079 30.744 106.247 29.24C105.447 27.736 104.327 26.584 102.887 25.784C101.479 24.952 99.8945 24.536 98.1345 24.536C96.3425 24.536 94.7265 24.952 93.2865 25.784C91.8785 26.584 90.7585 27.736 89.9265 29.24C89.1265 30.744 88.7265 32.456 88.7265 34.376C88.7265 36.296 89.1265 38.008 89.9265 39.512C90.7585 41.016 91.8785 42.184 93.2865 43.016C94.7265 43.816 96.3425 44.216 98.1345 44.216ZM133.21 21.56C136.378 21.56 138.89 22.488 140.746 24.344C142.634 26.168 143.578 28.84 143.578 32.36V47H140.17V32.696C140.17 30.072 139.514 28.072 138.202 26.696C136.89 25.32 135.018 24.632 132.586 24.632C129.866 24.632 127.706 25.448 126.106 27.08C124.538 28.68 123.754 30.904 123.754 33.752V47H120.346V21.752H123.61V26.408C124.538 24.872 125.818 23.688 127.45 22.856C129.114 21.992 131.034 21.56 133.21 21.56ZM163.388 47.24C160.892 47.24 158.652 46.696 156.668 45.608C154.716 44.52 153.18 43 152.06 41.048C150.94 39.064 150.38 36.84 150.38 34.376C150.38 31.912 150.94 29.704 152.06 27.752C153.18 25.8 154.716 24.28 156.668 23.192C158.652 22.104 160.892 21.56 163.388 21.56C165.564 21.56 167.5 21.992 169.196 22.856C170.924 23.688 172.284 24.92 173.276 26.552L170.732 28.28C169.9 27.032 168.844 26.104 167.564 25.496C166.284 24.856 164.892 24.536 163.388 24.536C161.564 24.536 159.916 24.952 158.444 25.784C157.004 26.584 155.868 27.736 155.036 29.24C154.236 30.744 153.836 32.456 153.836 34.376C153.836 36.328 154.236 38.056 155.036 39.56C155.868 41.032 157.004 42.184 158.444 43.016C159.916 43.816 161.564 44.216 163.388 44.216C164.892 44.216 166.284 43.912 167.564 43.304C168.844 42.696 169.9 41.768 170.732 40.52L173.276 42.248C172.284 43.88 170.924 45.128 169.196 45.992C167.468 46.824 165.532 47.24 163.388 47.24ZM190.349 44.216C191.917 44.216 193.357 43.944 194.669 43.4C196.013 42.824 197.149 41.992 198.077 40.904L199.997 43.112C198.877 44.456 197.485 45.48 195.821 46.184C194.157 46.888 192.317 47.24 190.301 47.24C187.709 47.24 185.405 46.696 183.389 45.608C181.373 44.488 179.805 42.952 178.685 41C177.565 39.048 177.005 36.84 177.005 34.376C177.005 31.912 177.533 29.704 178.589 27.752C179.677 25.8 181.165 24.28 183.053 23.192C184.941 22.104 187.085 21.56 189.485 21.56C191.725 21.56 193.741 22.072 195.533 23.096C197.357 24.12 198.797 25.544 199.853 27.368C200.941 29.192 201.517 31.272 201.581 33.608L180.845 37.64C181.485 39.688 182.637 41.304 184.301 42.488C185.997 43.64 188.013 44.216 190.349 44.216ZM189.485 24.488C187.725 24.488 186.141 24.904 184.733 25.736C183.357 26.536 182.269 27.672 181.469 29.144C180.701 30.584 180.317 32.248 180.317 34.136C180.317 34.616 180.333 34.968 180.365 35.192L198.173 31.736C197.789 29.624 196.813 27.896 195.245 26.552C193.677 25.176 191.757 24.488 189.485 24.488Z" fill="url(#paint0_linear_71_59348)"/>
<defs>
<linearGradient id="paint0_linear_71_59348" x1="102" y1="26.5" x2="102.017" y2="92.4334" gradientUnits="userSpaceOnUse">
<stop stop-color="#06B6D4"/>
<stop offset="1" stop-color="#294348"/>
</linearGradient>
</defs>
</svg>
